<svg xmlns="http://www.w3.org/2000/svg" width="633" height="428" viewBox="0 0 633 428">
    <defs>
        <linearGradient id="a" x1="49.988%" x2="49.988%" y1="100%" y2="-.007%">
            <stop offset="0%" stop-color="gray" stop-opacity=".25"/>
            <stop offset="54%" stop-color="gray" stop-opacity=".12"/>
            <stop offset="100%" stop-color="gray" stop-opacity=".1"/>
        </linearGradient>
    </defs>
    <g fill="none" fill-rule="evenodd">
        <g transform="translate(10.961)">
            <path fill="#FA2C46" d="M358.306 67.167c-39.024-1.357-76.19-13.952-111.687-27.735S175.975 10.377 137.886 3.105c-24.498-4.697-52.512-5.36-72.253 7.772C46.639 23.539 40.5 45.335 37.197 65.575c-2.478 15.236-3.943 31.262 2.864 45.522 4.721 9.9 13.108 18.22 18.909 27.705 20.175 32.992 5.915 73.678-15.954 105.893-10.25 15.11-22.153 29.544-30.07 45.618-7.917 16.074-11.577 34.518-4.655 50.93 6.868 16.279 23.226 28.482 40.941 37.074 35.991 17.45 78.386 22.447 119.76 25.275 91.543 6.265 183.58 3.552 275.363.838 33.971-1.007 68.087-2.026 101.503-7.277 18.56-2.918 37.721-7.549 51.192-18.691 17.1-14.187 21.339-38.214 9.882-56-19.222-29.84-72.355-37.256-85.808-69.278-7.398-17.624.2-37.261 10.944-53.607 23.058-35.072 61.702-65.834 63.74-105.923 1.399-27.53-17.179-55.102-45.904-68.132-30.112-13.656-71.861-11.938-94.063 10.666-22.888 23.22-63.082 32.173-97.535 30.979z" opacity=".1"/>
            <path fill="#6C63FF" d="M52.066 197.98S7 179.023 1.073 213.204c0 0-3.08 5.33 1.206 9.731 0 0 .923-2.363 5.276.078a22.413 22.413 0 0 0 4.92 2.002c2.315.638 4.774.507 7.007-.374 0 0 14.827-.802 27.296-20.198 0 0 5.348-3.304 5.614-4.546l-8.936.603s.687 6.542-3.015 10.467c0 0 3.28-10.154 1.706-10.437-.32-.06-4.721.518-4.721.518s1.14 11.378-4.824 17.263c0 0 5.536-11.57 3.13-17.058l-6.597 1.273s1.81 11.968-4.715 18.926c0 0 5.366-12.3 3.292-18.546l-6.313 2.122s1.52 11.703-3.937 17.485c0 0 4.763-14.838 2.52-16.882 0 0-5.68 2.303-6.892 3.617 0 0 .899 8.441-2.568 11.486 0 0 2.128-10.25 1.073-10.672 0 0-6.596 4.969-8.61 9.255 0 0 2.508-6.547 7.784-10.25 0 0-4.432-.747-7.839 1.104 0 0 2.28-4.347 9.437-2.285 0 0 5.3-3.672 6.361-3.618 0 0-6.771-3.015-11.661-2.64 0 0 5.246-3.015 13.313 2.02l6.301-2.274s-8.743-4.48-13.12-4.462c0 0 5.824-2.255 14.754 4.016l6.452-1.314s-7.236-4.432-12.114-5.463c0 0 5.85-.929 13.977 5.155l4.408-.368s-5.336-3.147-6.952-3.913c-1.616-.766-1.544-1.26-1.544-1.26a21.038 21.038 0 0 1 10.347 4.98s9.14-.205 9.177-.765zM50.414 163.998s-15.985-36.942-38.97-20c0 0-4.86 1.412-4.824 6.452 0 0 1.894-.88 3.094 3.057a18.148 18.148 0 0 0 1.809 3.986 9.044 9.044 0 0 0 4.371 3.768s9.268 7.97 27.737 3.551c0 0 5.064 1.08 5.927.5l-5.644-4.745s-3.322 4.281-7.772 4.486c0 0 7.736-4.16 6.964-5.227-.157-.217-3.105-2.376-3.105-2.376s-5.8 7.404-12.663 7.519c0 0 9.883-3.726 11.577-8.35l-4.642-3.015s-5.753 8.133-13.585 8.555c0 0 10.196-4.25 12.523-9.146l-4.962-2.334s-5.764 7.838-12.282 8.134c0 0 11.287-6.102 11.112-8.592 0 0-4.685-1.869-6.174-1.76 0 0-4.263 5.516-8.068 5.36 0 0 7.11-4.878 6.723-5.728 0 0-6.753-.808-10.389.603 0 0 5.222-2.46 10.462-1.652 0 0-2.207-2.973-5.276-3.799 0 0 3.834-1.284 6.91 4.01 0 0 5.233.844 5.848 1.47 0 0-2.297-5.66-5.426-8.211 0 0 4.823 1.206 6.753 8.785l5.04 2.237s-2.64-7.646-5.257-10.124c0 0 4.745 1.978 6.482 10.793l4.582 2.888s-1.773-6.753-4.082-10.148c0 0 4.004 2.786 5.36 11.028l2.834 2.291s-1.38-4.908-1.905-6.282c-.525-1.375-.199-1.628-.199-1.628a17.274 17.274 0 0 1 3.31 8.85s5.451 5.102 5.807 4.794z" opacity=".1"/>
            <path fill="url(#a)" fill-rule="nonzero" d="M562.729 402.248c-.603-2.183-1.206-4.396-2.412-6.295a21.875 21.875 0 0 0-3.955-4.323c-4.372-3.973-9.744-8.007-15.539-7a20.501 20.501 0 0 0-5.161 1.881c-.844.392-1.694.784-2.563 1.116a12.783 12.783 0 0 1-7.736.675c-1.326-.356-2.562-.995-3.87-1.393a12.494 12.494 0 0 0-1.906-.41 35.081 35.081 0 0 0 3.678-1.935c6.506-4.022 11.697-11.257 10.968-18.914-.241-2.593-1.134-5.071-2.014-7.513l-2.321-6.41c-1.001-2.779-2.032-5.606-3.865-7.916-2.038-2.568-4.933-4.31-7.923-5.613-6.428-2.792-13.453-3.774-20.387-4.727l-.482-.066v-74.909a4.823 4.823 0 0 0-4.824-4.854h-9.123l-1.206-7.373c-1.151-7-2.339-14.14-5.565-20.446-2.11-4.13-5.475-8.061-10.003-8.875a9.973 9.973 0 0 1-2.605-.603c-1.326-.651-2.05-2.098-3.075-3.171-2.629-2.756-6.904-2.798-10.431-4.221-3.112-1.236-5.656-3.57-8.49-5.36-2.834-1.79-6.361-3.07-9.503-1.9 0 .23-.042.453-.066.682l-2.014-.904c-2.17-1.001-4.39-2.038-6.132-3.69-2.243-2.117-3.437-4.908-4.366-7.887-.096-.313-.187-.603-.277-.934a28.054 28.054 0 0 0 7.5-14.332c.164.524.333 1.055.495 1.586.149.539.35 1.062.603 1.561.084.165.179.324.284.477.199.296.448.555.735.765.286.208.62.339.971.38.168.024.339.024.507 0a2.786 2.786 0 0 0 2.026-1.73c.096-.237.166-.484.21-.736.024-.152.038-.305.043-.458v-.145-.313-.17V175.389c0-.121-.036-.242-.06-.356-.025-.115 0-.066 0-.097-.03-.156-.067-.307-.097-.464a.603.603 0 0 1 0-.102l-.09-.38-.055-.23v-.06c-.06-.235-.114-.476-.169-.717a20.764 20.764 0 0 1-.331-6.373c.363-3.123.94-6.217 1.724-9.261l.127-.549.145-.639c.096-.434.187-.868.277-1.302.078-.368.15-.742.217-1.116.066-.374.115-.657.163-.989v-.12a28.65 28.65 0 0 0 .295-6.801c-.283-3.154-1.26-6.138-3.406-8.52-1.514-1.682-3.504-2.924-4.909-4.69-1.32-1.659-2.062-3.697-3.424-5.318-3.769-4.498-13.434-7.965-19.368-8.568-6.795-.687-17.775 1.049-23.25 5.065-2.026 1.483-3.413 3.617-4.824 5.649-2.592 3.774-5.54 7.537-9.695 9.647-1.574.796-3.37 1.399-4.414 2.786a7.59 7.59 0 0 0-1.206 3.129 61.623 61.623 0 0 0-1.242 11.938c-.09 1.754.134 3.51.663 5.185.085.23.187.464.296.687.096.2.205.398.32.603l.072.127a25.051 25.051 0 0 1 1.935 3.286c.133.322.23.658.29 1a7.41 7.41 0 0 1-.17 2.648c0 .132-.048.259-.078.386l-.054.277c0 .084 0 .175-.048.26-.048.26-.09.52-.127.777 0 .18-.036.368-.042.555-.043.746.1 1.492.416 2.17.08.162.174.315.283.459.216.289.495.526.814.693a9.13 9.13 0 0 0 2.231.53c2.255.507 3.666 2.231 4.583 4.348.203.475.382.96.537 1.453.376 1.237.658 2.5.844 3.78 1.025-.054 1.622-.959 1.983-1.947.114-.326.208-.659.284-.995.139-.633.277-1.266.422-1.9a28.03 28.03 0 0 0 11.01 12.132c.169.494.332.994.482 1.5.79 2.732 1.17 5.596-.199 7.984-.976 1.694-2.622 2.743-4.455 3.467a2.948 2.948 0 0 0-.995-.85c-1.592-.796-3.498.174-4.824 1.362-2.412 2.183-4.378 5.312-7.555 6.03-1.146.265-2.412.21-3.37.91a7.79 7.79 0 0 0-1.562 2.056 7.193 7.193 0 0 1-6.175 3.075c-1.103-.054-2.412-.308-3.165.5-.561.603-.603 1.562-1.206 2.135-.814.796-2.135.404-3.268.355a6.03 6.03 0 0 0-4.372 1.894 10.286 10.286 0 0 0-2.629-6.572c-1.628-1.677-3.889-2.539-5.818-3.853-4.824-3.28-7.236-9.044-9.75-14.326-2.515-5.282-5.831-10.853-11.318-12.776-1.26-.446-3.015-.482-3.582.742a2.67 2.67 0 0 0-.09 1.597c.53 2.81 2.532 5.065 4.263 7.326 2.912 3.81 5.354 8.471 4.649 13.234-.826 5.638-5.849 10.015-6.452 15.677-.265 2.496.368 5.004.362 7.512 0 1.568-.247 3.154.09 4.68a31.731 31.731 0 0 0 1.272 3.406 19.95 19.95 0 0 1 .833 5.613c.426 7.99.85 15.984 1.272 23.979.32 5.963-.983 11.847-2.297 17.714a55.583 55.583 0 0 0-3.775 10.853c-1.483 6.53-1.526 13.487.603 19.842 1.14 3.455 2.888 6.693 3.823 10.208 0 .078.036.15.054.223.09.748.193 1.495.332 2.237a21.5 21.5 0 0 0 .669 2.532c.273 1.43.719 2.82 1.326 4.142a11.589 11.589 0 0 0 3.618 4.22c-.868 1.701-2.273 3.07-3.208 4.734-1.628 2.882-1.694 6.421-1.103 9.69 1.14 6.306 4.546 11.943 9.045 16.526a5.234 5.234 0 0 0-.603 0 9.455 9.455 0 0 0-4.125 1.477c-9.52 5.565-14.965 17.485-12.976 28.398.392 2.134 1.074 4.293 2.497 5.915a9.382 9.382 0 0 0 4.395 2.695c1.055.317 2.14.52 3.238.603 7.423.603 14.61-2.84 22.05-3.13a59.389 59.389 0 0 1 7.387.344c3.582.298 7.171.487 10.769.567 5.843.139 9.135-1.417 12.867-5.788a15.604 15.604 0 0 0 2.273-3.582c3.172-.18 6.675-.458 9.214-.669l.036.356c.139 1.206.35 2.593 1.314 3.358.545.37 1.161.62 1.81.736 6.095 1.501 12.264 3.014 18.534 3.014a78.22 78.22 0 0 0 8.804-.68l11.034-1.273a56.205 56.205 0 0 1 9.473 2.062c3.183 1.085 6.162 2.695 9.273 3.961 7.236 2.937 15.026 3.986 22.738 5.01 1.314.176 2.822.296 3.799-.602 1.254-1.206.832-3.226.482-4.914a26.856 26.856 0 0 1-.344-2.086 104.618 104.618 0 0 1 15.231 5.287l.868.38c.248 1.315 1.466 2.37 2.63 3.787a9.587 9.587 0 0 0 1.332 1.646 4.372 4.372 0 0 0 1.911.693 89.316 89.316 0 0 0 24.722 1.115 25.326 25.326 0 0 1 5.095-.174 21.49 21.49 0 0 1 3.678.832l6.982 1.995c5.144 1.478 10.42 2.967 15.756 2.635a20.93 20.93 0 0 0 3.22-.464c4.22-.977 8.158-3.34 10.184-7.139 2.72-5.167 1.399-11.516-.151-17.16zm-204.803-94.305a21.94 21.94 0 0 1-2.014 7.542c-.748 1.514-1.712 2.907-2.412 4.426-.663 1.375-1.158 3.973-1.453 6.825-.362-.06-.73-.114-1.091-.157.536-1.88.94-3.81 1.477-5.697 1.272-4.486 3.364-8.725 5.493-12.94z"/>
            <path fill="#F5BD41" d="M367.218 400.674c-1.273-2.894-2.479-6.222-1.206-9.116a7.748 7.748 0 0 1 4.01-3.769 19.296 19.296 0 0 1 5.426-1.338 75.742 75.742 0 0 1 17.643-.241c.428 3.388-.476 6.825-1.254 10.099-.706 3.014-1.11 3.46-4.221 3.617-2.014.109-19.922 1.815-20.398.748z"/>
            <ellipse cx="420.912" cy="357.034" fill="#464353" rx="86.224" ry="24.117"/>
            <ellipse cx="420.912" cy="357.034" fill="#000035" opacity=".766" rx="86.224" ry="24.117"/>
            <path fill="#F5BD41" d="M436.372 229.718a26.825 26.825 0 0 1-13.832 12.565 34.72 34.72 0 0 1-10.95 2.086c-4.094.187-8.273-.078-12.12-1.477-5.161-1.869-9.448-5.692-12.662-10.147-3.214-4.456-5.427-9.545-7.35-14.676-1.013-2.67-1.978-5.517-1.502-8.338 3.106-.706 6.506-1.743 8.11-4.498 1.369-2.364.99-5.197.2-7.899a41.136 41.136 0 0 0-.742-2.255c-.603-1.748-2.684-5.07-1.236-6.566.922-.946 4.787-1.428 6.12-2.043 4.106-1.894 7.892-4.631 12.403-5.53 3.9-.777 7.929-.048 11.824.76a3.89 3.89 0 0 1 1.459.525 3.51 3.51 0 0 1 1.085 1.628c1.11 2.7 1.761 5.685 2.653 8.501.929 2.949 2.123 5.716 4.36 7.808 1.742 1.634 3.961 2.66 6.132 3.654l5.342 2.448c.95.356 1.812.913 2.527 1.634a6.397 6.397 0 0 1 1.206 3.28 30.64 30.64 0 0 1-3.027 18.54z" opacity=".99"/>
            <path fill="#000035" d="M419.808 192.354c-8.746 9.097-22.53 11.144-33.543 4.98a41.136 41.136 0 0 0-.741-2.255c-.603-1.748-2.684-5.07-1.236-6.566.922-.946 4.787-1.428 6.12-2.043 4.106-1.894 7.892-4.631 12.403-5.53 3.9-.777 7.929-.048 11.824.76a3.89 3.89 0 0 1 1.459.525 3.51 3.51 0 0 1 1.085 1.628c1.086 2.7 1.737 5.685 2.63 8.501z" opacity=".1"/>
            <ellipse cx="399.808" cy="171.933" fill="#F5BD41" opacity=".99" rx="27.736" ry="27.735"/>
            <path fill="#FA2C46" d="M484.313 261.945l-2.279-13.807c-1.151-6.928-2.34-13.988-5.56-20.229-2.116-4.088-5.474-7.983-10.002-8.79a9.678 9.678 0 0 1-2.605-.603c-1.327-.64-2.05-2.075-3.07-3.136-2.628-2.725-6.91-2.767-10.43-4.154-3.112-1.206-5.656-3.527-8.49-5.3-2.834-1.772-6.362-3.014-9.497-1.88-.506 5.395-1.043 10.912-3.334 15.826a23.684 23.684 0 0 1-35.732 8.9c-5.372-4.046-8.815-10.287-10.42-16.816-.391-1.592-.837-3.42-2.303-4.149-1.585-.795-3.49.17-4.823 1.339-2.442 2.164-4.384 5.264-7.555 5.993-1.146.265-2.412.211-3.365.904a7.657 7.657 0 0 0-1.568 2.032 7.236 7.236 0 0 1-6.168 3.051c-1.103-.054-2.412-.307-3.166.495-.56.603-.603 1.543-1.206 2.104-.814.79-2.134.404-3.268.362-2.146-.09-4.142 1.284-5.372 3.014-1.23 1.73-1.809 3.871-2.412 5.945 6.59 14.676 12.62 29.37 19.21 44.045.31.553.473 1.175.477 1.808a4.407 4.407 0 0 1-.82 1.81c-3.232 5.19-3.13 11.72-2.774 17.822.356 6.102.79 12.547-1.935 18.016-.742 1.5-1.707 2.876-2.412 4.377-1.652 3.4-2.25 14.277-1.284 17.931h136.27c-2.6-7.145-1.61-21.482-1.068-29.067.38-5.306-.603-10.606-1.025-15.912-.886-10.834-.223-21.114-2.014-31.931z"/>
            <path fill="#464353" d="M491.29 334.635c2.008-.766 4.22-.489 6.373-.2 6.928.947 13.959 1.918 20.38 4.685 3.015 1.29 5.885 3.015 7.923 5.554 1.81 2.285 2.864 5.082 3.865 7.838l2.316 6.324c.88 2.412 1.772 4.872 2.02 7.435.723 7.59-4.468 14.747-10.999 18.69-6.53 3.944-14.217 5.349-21.706 6.82a693.191 693.191 0 0 0-22.467 4.823 90.449 90.449 0 0 1-10.57 2.08c-7.983.905-16.328-.428-23.913 2.213-3.015 1.055-5.976 2.623-9.105 3.352a56.639 56.639 0 0 1-6.289 1.013l-14.357 1.64c-2.919.39-5.858.616-8.803.676-6.27 0-12.439-1.484-18.529-2.967a4.685 4.685 0 0 1-1.809-.73c-.965-.759-1.176-2.104-1.314-3.322a575.96 575.96 0 0 1-1.616-16.188c-.145-1.755-.254-3.654.705-5.131 1.206-1.81 3.558-2.376 5.704-2.726a148.867 148.867 0 0 1 27.544-1.91c3.503-3.504 9.28-3.522 13.868-5.427a41.237 41.237 0 0 0 4.89-2.66 63.917 63.917 0 0 1 26.838-8.482 24.994 24.994 0 0 0 5.493-.784c3.551-1.104 6.79-4.106 10.437-3.37.452-1.249.766-2.919 1.81-3.775.518-.44 1.157-.736 1.633-1.206 1.007-1.019 1.098-2.623.947-4.046-.151-1.423-.489-2.882-.12-4.268a5.903 5.903 0 0 1 .668-1.49c1.815-3.171 4.547-4.763 8.183-4.461z"/>
            <path fill="#000035" d="M491.29 334.635c2.008-.766 4.22-.489 6.373-.2 6.928.947 13.959 1.918 20.38 4.685 3.015 1.29 5.885 3.015 7.923 5.554 1.81 2.285 2.864 5.082 3.865 7.838l2.316 6.324c.88 2.412 1.772 4.872 2.02 7.435.723 7.59-4.468 14.747-10.999 18.69-6.53 3.944-14.217 5.349-21.706 6.82a693.191 693.191 0 0 0-22.467 4.823 90.449 90.449 0 0 1-10.57 2.08c-7.983.905-16.328-.428-23.913 2.213-3.015 1.055-5.976 2.623-9.105 3.352a56.639 56.639 0 0 1-6.289 1.013l-14.357 1.64c-2.919.39-5.858.616-8.803.676-6.27 0-12.439-1.484-18.529-2.967a4.685 4.685 0 0 1-1.809-.73c-.965-.759-1.176-2.104-1.314-3.322a575.96 575.96 0 0 1-1.616-16.188c-.145-1.755-.254-3.654.705-5.131 1.206-1.81 3.558-2.376 5.704-2.726a148.867 148.867 0 0 1 27.544-1.91c3.503-3.504 9.28-3.522 13.868-5.427a41.237 41.237 0 0 0 4.89-2.66 63.917 63.917 0 0 1 26.838-8.482 24.994 24.994 0 0 0 5.493-.784c3.551-1.104 6.79-4.106 10.437-3.37.452-1.249.766-2.919 1.81-3.775.518-.44 1.157-.736 1.633-1.206 1.007-1.019 1.098-2.623.947-4.046-.151-1.423-.489-2.882-.12-4.268a5.903 5.903 0 0 1 .668-1.49c1.815-3.171 4.547-4.763 8.183-4.461z" opacity=".473"/>
            <path fill="#000035" d="M372.765 404.4c-3.732 4.323-7.019 5.867-12.861 5.728a188.991 188.991 0 0 1-10.77-.56 60.42 60.42 0 0 0-7.38-.344c-7.44.29-14.621 3.696-22.044 3.099a15.63 15.63 0 0 1-3.238-.603 9.424 9.424 0 0 1-4.371-2.66c-1.423-1.609-2.105-3.743-2.497-5.854-1.983-10.816 3.455-22.598 12.976-28.102a9.516 9.516 0 0 1 4.124-1.466 9.776 9.776 0 0 1 4.173.917l.09.036a31.553 31.553 0 0 1 10.335 6.898c.448.513.983.943 1.58 1.272a5.427 5.427 0 0 0 1.863.35l7.923.5c1.342.04 2.677.224 3.98.549a31.632 31.632 0 0 1 4.184 1.808c4.263 1.906 8.99 2.412 13.597 3.148.444.024.868.194 1.206.482.184.229.312.497.374.784a15.38 15.38 0 0 1-3.244 14.018z"/>
            <path fill="#000035" d="M330.943 374.591a47.572 47.572 0 0 0-7.929 9.912 49.608 49.608 0 0 0-6.476 19.62 36.415 36.415 0 0 0-.066 7.603 9.424 9.424 0 0 1-4.371-2.665c-1.423-1.61-2.105-3.744-2.497-5.855-1.983-10.816 3.455-22.598 12.976-28.102a9.516 9.516 0 0 1 4.124-1.466 9.776 9.776 0 0 1 4.173.917l.066.036z" opacity=".1"/>
            <path fill="#F5BD41" d="M484.392 389.586c4.432-.12 9.406-.344 12.662 2.64 3.105 2.823 3.515 7.477 3.72 11.668l.235 4.865c.073 1.484.133 3.015-.464 4.39-1.061 2.412-3.973 3.575-6.632 3.436-2.66-.138-5.101-1.302-7.531-2.35a105.945 105.945 0 0 0-20.501-6.458c.229-3.365.61-6.713 1.145-10.045.368-2.31.429-6.174 1.972-8.092 1.634-2.026 3.763-.928 5.982-.554 3.113.475 6.266.642 9.412.5z"/>
            <path fill="#000035" d="M367.284 340.7c0 .603-.947 0-1.031-.645-.663-4.878-4.534-8.9-9.045-10.853-4.51-1.953-9.647-2.056-14.531-1.592-7.386.7-15.647 3.528-18.378 10.431-.64 1.616-.929 3.365-1.713 4.914-.868 1.7-2.285 3.057-3.226 4.71-1.622 2.857-1.688 6.36-1.103 9.592 1.574 8.622 7.47 15.996 14.616 21.102 7.145 5.107 15.496 8.158 23.823 10.908a413.163 413.163 0 0 0 67.532 16.128c3.714.56 7.465 1.08 11.022 2.273 3.184 1.067 6.162 2.665 9.274 3.92 7.235 2.905 15.02 3.942 22.732 4.961 1.314.17 2.821.29 3.792-.603 1.254-1.163.838-3.19.483-4.86a26.136 26.136 0 0 1 3.069-18.533c1.29-2.171 2.966-4.396 2.725-6.91-.29-2.93-3.208-5.004-6.114-5.475-2.906-.47-5.86.223-8.78.603-1.006.133-2.104.217-3.014-.295a5.963 5.963 0 0 1-1.17-1.037 13.224 13.224 0 0 0-15.4-2.153c-1.079.603-2.713-.741-3.834-1.248l-12.669-5.746c-14.567-6.59-29.207-13.21-44.619-17.382a9.37 9.37 0 0 1-3.437-1.43c-.766-.602-1.314-1.422-2.02-2.092-1.537-1.453-3.678-2.031-5.523-3.062-1.845-1.031-3.895-3.558-3.461-5.626zM562.76 419.498c-2.027 3.756-5.958 6.095-10.179 7.06a20.2 20.2 0 0 1-3.22.458c-5.336.332-10.606-1.145-15.75-2.604l-6.982-1.978a22.04 22.04 0 0 0-3.678-.82 25.241 25.241 0 0 0-5.089.175 90.202 90.202 0 0 1-24.721-1.11 4.36 4.36 0 0 1-1.912-.68 9.496 9.496 0 0 1-1.332-1.635c-1.9-2.285-3.944-3.617-1.694-6.632 1.296-1.749 3.702-2.623 4.709-4.63 1.007-2.008.361-4.86-.235-6.934-.814-2.864-3.492-4.1-4.45-6.73-.718-1.983.488-4.286 2.303-5.365 1.815-1.08 4.058-1.164 6.15-.887 2.092.278 4.143.869 6.247 1.031 6.186.495 12.511-2.695 18.45-.898 1.31.398 2.545 1.031 3.872 1.38 2.586.58 5.287.345 7.736-.668.868-.326 1.718-.718 2.562-1.104a20.64 20.64 0 0 1 5.156-1.863c5.794-.995 11.167 3.015 15.538 6.928a21.971 21.971 0 0 1 3.95 4.28c1.205 1.882 1.845 4.07 2.411 6.229 1.598 5.59 2.919 11.872.157 16.997z"/>
            <path fill="#000035" d="M562.76 419.498c-2.027 3.756-5.958 6.095-10.179 7.06a19.71 19.71 0 0 0 2.14-10.346c-.361-5.734-2.882-11.137-6.095-15.9a56.315 56.315 0 0 0-6.717-8.182c-1.918-1.929-4.275-3.46-6.338-5.227a20.64 20.64 0 0 1 5.156-1.863c5.794-.995 11.167 3.015 15.538 6.928a21.971 21.971 0 0 1 3.95 4.28c1.206 1.882 1.845 4.07 2.411 6.229 1.574 5.613 2.895 11.896.133 17.02z" opacity=".1"/>
            <path fill="#000132" d="M380.646 126.918c-2.026 1.465-3.413 3.57-4.824 5.589-2.599 3.732-5.541 7.458-9.696 9.538-1.573.79-3.37 1.387-4.413 2.762a7.44 7.44 0 0 0-1.176 3.093 61.285 61.285 0 0 0-1.242 11.817c0 1.978.084 4.016.958 5.813.826 1.688 2.316 3.117 2.623 4.956.235 1.435-.295 2.864-.482 4.305-.187 1.44.139 3.147 1.471 3.834.718.27 1.468.447 2.231.525 4.01.892 5.354 5.595 5.963 9.484 1.363-.078 1.978-1.64 2.262-2.912l4.178-18.577c.452-2.013 1.206-4.347 3.214-5.052 1.345-.464 2.816-.03 4.22.09 5.518.453 10.185-3.81 15.581-4.986a19.899 19.899 0 0 1 5.252-.344c4.257.211 9.207 1.96 10.112 5.933.15.645.241 1.417.844 1.737.603.32 1.206.048 1.87 0 2.7-.272 4.292 2.767 5.07 5.251l2.834 9.044c.422 1.369 1.134 2.979 2.617 3.154 1.369.168 2.532-1.128 2.737-2.412.205-1.284-.24-2.617-.536-3.907-1.333-5.939.705-12.017 1.947-17.968 1.242-5.95 1.465-12.788-2.701-17.37-1.513-1.658-3.503-2.894-4.914-4.643-1.315-1.64-2.056-3.653-3.419-5.263-3.768-4.444-13.434-7.875-19.361-8.441-6.747-.742-17.745.976-23.22 4.95z"/>
            <g fill="#000035" opacity=".09">
                <path d="M430.137 177.745c-1.483-.18-2.195-1.809-2.617-3.153l-2.834-9.044c-.778-2.49-2.37-5.53-5.07-5.252-.604.066-1.315.314-1.87 0-.555-.313-.693-1.091-.844-1.736-.905-3.98-5.855-5.722-10.112-5.933-1.758-.116-3.524 0-5.252.343-5.426 1.206-10.063 5.427-15.58 4.987-1.423-.115-2.894-.549-4.221-.085-2.032.7-2.762 3.015-3.214 5.053l-4.178 18.57c-.284 1.279-.899 2.84-2.261 2.912-.603-3.882-1.954-8.585-5.964-9.478a9.479 9.479 0 0 1-2.23-.524 2.617 2.617 0 0 1-1.164-1.296c-.109.56-.236 1.121-.308 1.682-.18 1.435.139 3.147 1.471 3.834.718.27 1.468.447 2.231.525 4.01.892 5.355 5.595 5.964 9.484 1.362-.078 1.977-1.64 2.26-2.912l4.18-18.577c.451-2.013 1.205-4.347 3.213-5.052 1.345-.464 2.816-.03 4.22.09 5.518.453 10.185-3.81 15.581-4.986 1.72-.344 3.478-.46 5.228-.344 4.257.211 9.207 1.96 10.112 5.933.15.645.241 1.417.844 1.737.603.32 1.206.048 1.87 0 2.7-.272 4.292 2.767 5.07 5.251.94 3.019 1.885 6.034 2.834 9.044.422 1.369 1.134 2.979 2.617 3.154 1.369.168 2.532-1.128 2.737-2.412a8.187 8.187 0 0 0-.361-3.202 2.49 2.49 0 0 1-2.352 1.387zM362.882 166.265c-.307-1.839-1.809-3.268-2.623-4.956a9.918 9.918 0 0 1-.892-3.618c0 .676-.06 1.351-.066 2.032 0 1.978.084 4.016.958 5.813.67 1.368 1.773 2.574 2.328 3.967a9.08 9.08 0 0 0 .295-3.238zM434.285 153.435c-1.097 5.257-2.81 10.611-2.279 15.881.344-3.889 1.477-7.802 2.28-11.66.668-2.93.903-5.94.699-8.936a36.862 36.862 0 0 1-.7 4.715z"/>
            </g>
            <path fill="#F5BD41" d="M365.258 288.595c-.73 11.974-9.515 21.868-12.861 33.384-.832 2.882-1.333 5.873-2.527 8.616-2.412 5.517-7.374 9.52-12.662 12.342a19.018 19.018 0 0 1-6.235 2.267 11.95 11.95 0 0 1-12.005-6.385c-1.38-2.804-1.573-6.03-2.411-9.044-.935-3.479-2.684-6.687-3.823-10.105-2.099-6.289-2.056-13.174-.603-19.638a60.292 60.292 0 0 1 6.47-16.014c.422-.741.85-1.477 1.29-2.206a50.152 50.152 0 0 1 4.178-6.03c3.618-4.359 8.267-7.711 12.868-11.015.351-.29.763-.496 1.206-.603h.072a2.912 2.912 0 0 1 1.49.35 117.918 117.918 0 0 1 18.3 9.912c2.074 1.38 5.348 2.924 6.433 5.275 1.085 2.352.977 6.337.82 8.894z" opacity=".99"/>
            <path fill="#FA2C46" d="M341.32 233.492a6.24 6.24 0 0 0-1.338 2.14 101.204 101.204 0 0 0-8.502 34.742 3.473 3.473 0 0 1-.392 1.682 7.362 7.362 0 0 1-.886.959 3.328 3.328 0 0 0 .566 4.823c.995-1.875 3.377-2.484 5.493-2.647 10.136-.802 20.037 3.913 30.203 3.558-.718-2.478-1.749-4.86-2.334-7.368-2.586-11.136 3.865-23.261-.09-33.988-.79-2.146-2.11-4.256-4.19-5.197a11.161 11.161 0 0 0-2.684-.711c-2.568-.465-7.682-2.448-10.166-1.652-.916.295-1.278 1.157-2.038 1.676-1.127.741-2.659 1-3.642 1.983z"/>
            <path fill="#000035" d="M345.475 333.188a17.782 17.782 0 0 1-15.074 8.748 11.879 11.879 0 0 1-4.824-.886c-3.853-1.7-6.03-5.909-6.838-10.045-.808-4.136-.554-8.405-1.127-12.583-.459-3.328-1.435-6.56-1.942-9.882-1.242-8.218 1.206-16.334 2.949-24.516.422-.741.85-1.477 1.29-2.206a50.152 50.152 0 0 1 4.179-6.03c3.617-4.359 8.266-7.711 12.867-11.015h-4.824a.826.826 0 0 1 1.309.572c.476 4.221 6.427 8.442 7.724 12.541.801 2.52 1.766 4.993 2.411 7.561a60.574 60.574 0 0 1 1.158 6.633c.856 6.242 1.708 12.472 2.557 18.69 1.067 7.591 1.983 15.797-1.815 22.418z" opacity=".1"/>
            <path fill="#F5BD41" d="M337.491 254.022l5.82-18.25c.867-2.732 1.748-5.505 1.85-8.375.103-2.87-.651-5.879-2.659-7.929-1.628-1.658-3.883-2.514-5.812-3.81-4.824-3.25-7.236-8.942-9.75-14.181-2.515-5.24-5.825-10.72-11.312-12.662-1.266-.446-3.015-.482-3.582.73a2.562 2.562 0 0 0-.09 1.58c.53 2.785 2.526 5.01 4.263 7.234 2.912 3.769 5.348 8.381 4.649 13.096-.832 5.583-5.849 9.912-6.452 15.526-.265 2.472.368 4.95.362 7.44 0 1.543-.253 3.117.09 4.624a31.147 31.147 0 0 0 1.272 3.425c.538 1.803.818 3.672.833 5.553l1.272 23.732c.687 12.836-6.277 25.323-4.36 37.984.507 3.323 1.484 6.554 1.942 9.883.603 4.178.32 8.44 1.127 12.583.808 4.142 3.015 8.344 6.838 10.045 1.529.627 3.172.93 4.824.886a17.782 17.782 0 0 0 15.074-8.749c3.799-6.632 2.882-14.826 1.845-22.387l-2.557-18.69a60.574 60.574 0 0 0-1.157-6.633c-.64-2.568-1.604-5.04-2.412-7.56-2.587-8.243-4.522-16.907-1.918-25.095z" opacity=".99"/>
            <rect width="134.461" height="85.617" x="362.726" y="255.439" fill="#3F3D56" rx="15.288"/>
            <rect width="134.461" height="85.617" x="362.726" y="255.439" fill="#000035" opacity=".2" rx="15.288"/>
            <ellipse cx="429.655" cy="298.248" fill="#FFF" rx="3.618" ry="3.618"/>
            <path fill="#3F3D56" d="M270.997 368.393h7.301c8.326 0 15.075 6.749 15.075 15.073v22.375h-37.45v-22.375c0-8.324 6.748-15.073 15.074-15.073z"/>
            <path fill="#000035" d="M270.997 368.393h7.301c8.326 0 15.075 6.749 15.075 15.073v22.375h-37.45v-22.375c0-8.324 6.748-15.073 15.074-15.073z" opacity=".1"/>
            <ellipse cx="273.155" cy="373.638" fill="#3F3D56" rx="2.997" ry="2.997"/>
            <ellipse cx="273.155" cy="369.894" fill="#3F3D56" rx="2.997" ry="2.997"/>
            <ellipse cx="273.155" cy="366.15" fill="#3F3D56" rx="2.997" ry="2.997"/>
            <ellipse cx="273.155" cy="362.406" fill="#3F3D56" rx="2.997" ry="2.997"/>
            <ellipse cx="273.155" cy="358.662" fill="#3F3D56" rx="2.997" ry="2.997"/>
            <ellipse cx="273.155" cy="354.917" fill="#3F3D56" rx="2.997" ry="2.997"/>
            <ellipse cx="273.155" cy="351.173" fill="#3F3D56" rx="2.997" ry="2.997"/>
            <ellipse cx="277.647" cy="352.668" fill="#3F3D56" rx="2.997" ry="2.997"/>
            <ellipse cx="280.644" cy="351.173" fill="#3F3D56" rx="2.997" ry="2.997"/>
            <ellipse cx="283.641" cy="349.672" fill="#3F3D56" rx="2.997" ry="2.997"/>
            <ellipse cx="273.155" cy="347.423" fill="#3F3D56" rx="2.997" ry="2.997"/>
            <ellipse cx="273.155" cy="343.679" fill="#3F3D56" rx="2.997" ry="2.997"/>
            <ellipse cx="273.155" cy="339.934" fill="#3F3D56" rx="2.997" ry="2.997"/>
            <ellipse cx="273.155" cy="336.19" fill="#3F3D56" rx="2.997" ry="2.997"/>
            <path fill="#FA2C46" d="M285.57 326.525c-.741.109-1.49.187-2.237.235a17.22 17.22 0 0 0 1.93-1.977 12.794 12.794 0 0 0-1.81-3.515 6.163 6.163 0 0 1-2.411.76 27.86 27.86 0 0 1-2.237.24 41.248 41.248 0 0 0 2.864-3.014 12.723 12.723 0 1 0 4.022 7.247l-.12.024zM295.585 341.412a5.927 5.927 0 0 1-2.52.844c-.742.108-1.49.187-2.237.235a21.947 21.947 0 0 0 2.219-2.303 7.501 7.501 0 1 0 2.538 1.206v.018z"/>
            <ellipse cx="268.657" cy="352.668" fill="#3F3D56" rx="2.997" ry="2.997"/>
            <ellipse cx="265.66" cy="351.173" fill="#3F3D56" rx="2.997" ry="2.997"/>
            <ellipse cx="262.664" cy="349.672" fill="#3F3D56" rx="2.997" ry="2.997"/>
            <path fill="#FA2C46" d="M250.719 341.412c.765.47 1.627.758 2.52.844.742.108 1.49.187 2.237.235a21.356 21.356 0 0 1-2.219-2.303 7.501 7.501 0 1 1-2.538 1.206v.018z"/>
            <path fill="#3F3D56" d="M270.997 370.642h7.301c8.326 0 15.075 6.748 15.075 15.073v19.819a2.557 2.557 0 0 1-2.557 2.556h-32.337a2.557 2.557 0 0 1-2.557-2.556v-19.819c0-8.325 6.75-15.073 15.075-15.073z"/>
            <g fill="#000035" opacity=".1">
                <path d="M285.8 327.345c-.304.324-.626.63-.965.917.343 0 .68-.055 1.025-.09-.012-.278-.03-.556-.06-.827zM280.336 323.764a27.993 27.993 0 0 0 2.243-.235 7.236 7.236 0 0 0 1.948-.531 13.216 13.216 0 0 0-1.05-1.73c-.374.228-.78.4-1.205.512a17.359 17.359 0 0 1-1.936 1.984zM261.916 330.197a12.71 12.71 0 0 1 19.596-10.708l.193-.205a12.723 12.723 0 1 0-16.774 19.131 12.661 12.661 0 0 1-3.015-8.218z"/>
            </g>
            <g fill="#000035" opacity=".1">
                <path d="M290.828 343.986a27.844 27.844 0 0 0 2.237-.235 5.849 5.849 0 0 0 2.52-.844 7.494 7.494 0 0 1 3.015 5.306c.03-.263.044-.526.042-.79a7.464 7.464 0 0 0-3.014-6.03 5.927 5.927 0 0 1-2.52.845l-.604.072a15.297 15.297 0 0 1-1.676 1.676zM291.13 341.43c.25.003.5.02.747.054.392-.416.778-.862 1.17-1.296a7.477 7.477 0 0 0-9.406 7.235c0 .253 0 .5.036.748a7.489 7.489 0 0 1 7.453-6.741z"/>
            </g>
            <g fill="#000035" opacity=".1">
                <path d="M255.476 343.986a27.844 27.844 0 0 1-2.237-.235 5.819 5.819 0 0 1-2.52-.844 7.494 7.494 0 0 0-3.015 5.306 6.861 6.861 0 0 1-.042-.79 7.464 7.464 0 0 1 3.015-6.03c.765.47 1.627.759 2.52.845l.603.072a14.272 14.272 0 0 0 1.676 1.676zM255.175 341.43a6.247 6.247 0 0 0-.754.054c-.386-.416-.772-.862-1.164-1.296a7.477 7.477 0 0 1 9.407 7.235c0 .253 0 .5-.037.748a7.489 7.489 0 0 0-7.452-6.741z"/>
            </g>
            <path fill="#5FD0D6" d="M95.909 109.61h136.27v53.058H95.909z"/>
            <rect width="223.7" height="53.058" x="95.335" y="108.317" stroke="#3F3D56" stroke-width="17.264" rx="23.018"/>
        </g>
        <g transform="translate(0 71.247)">
            <g fill-rule="nonzero" transform="translate(102.39)">
                <path fill="#5FD0D6" d="M11.452 0C5.314 0 .37 4.992.37 11.19c0 6.197 4.944 11.189 11.082 11.189 6.138 0 11.082-4.992 11.082-11.19C22.534 4.992 17.59 0 11.452 0zm0 16.526c-2.898 0-5.285-2.41-5.285-5.337 0-2.926 2.387-5.336 5.285-5.336s5.285 2.41 5.285 5.336c0 2.927-2.301 5.337-5.285 5.337z"/>
                <ellipse cx="11.452" cy="11.189" fill="#F5BD41" rx="3.022" ry="3.052"/>
            </g>
            <g fill-rule="nonzero" transform="translate(91.429 101.39)">
                <path fill="#5FD0D6" d="M16.986 0C8.121 0 .98 7.21.98 16.162c0 8.952 7.142 16.163 16.007 16.163 8.866 0 16.008-7.211 16.008-16.163C32.994 7.211 25.852 0 16.986 0zm0 23.87c-4.186 0-7.634-3.48-7.634-7.708 0-4.227 3.448-7.708 7.634-7.708 4.187 0 7.635 3.481 7.635 7.708 0 4.228-3.325 7.709-7.635 7.709z"/>
                <ellipse cx="16.986" cy="16.162" fill="#F5BD41" rx="4.366" ry="4.408"/>
            </g>
            <path fill="#5FD0D6" fill-rule="nonzero" d="M11.082 103.756C4.944 103.756 0 108.748 0 114.946c0 6.197 4.944 11.189 11.082 11.189 6.138 0 11.082-4.992 11.082-11.19 0-6.197-4.944-11.189-11.082-11.189z"/>
            <path fill="#E6434D" fill-rule="nonzero" d="M11.082 120.282c-2.898 0-5.285-2.41-5.285-5.336 0-2.927 2.387-5.337 5.285-5.337s5.285 2.41 5.285 5.337c0 2.926-2.387 5.336-5.285 5.336z"/>
            <ellipse cx="11.082" cy="114.946" fill="#F5BD41" fill-rule="nonzero" rx="3.022" ry="3.052"/>
            <ellipse cx="28.491" cy="128.647" stroke="#5FD0D6" stroke-width="2.74" rx="3.022" ry="3.052"/>
            <ellipse cx="123.916" cy="27.465" stroke="#5FD0D6" stroke-width="2.74" rx="3.022" ry="3.052"/>
            <ellipse cx="95.708" cy="3.052" stroke="#5FD0D6" stroke-width="2.74" rx="3.022" ry="3.052"/>
        </g>
        <g transform="translate(427.48 167.156)">
            <g fill-rule="nonzero" transform="translate(163.792)">
                <path fill="#5FD0D6" d="M17.87 0C8.076 0 .186 7.988.186 17.903c0 9.916 7.89 17.903 17.684 17.903s17.684-7.987 17.684-17.903C35.554 7.988 27.664 0 17.87 0zm0 26.441c-4.625 0-8.434-3.856-8.434-8.538s3.81-8.538 8.434-8.538c4.625 0 8.434 3.856 8.434 8.538s-3.673 8.538-8.434 8.538z"/>
                <ellipse cx="17.87" cy="17.903" fill="#F5BD41" rx="4.823" ry="4.883"/>
            </g>
            <g fill-rule="nonzero" transform="translate(147.3 162.223)">
                <path fill="#5FD0D6" d="M25.702 0C11.554 0 .158 11.538.158 25.86s11.396 25.86 25.544 25.86c14.147 0 25.543-11.538 25.543-25.86S39.849 0 25.702 0zm0 38.193c-6.681 0-12.183-5.57-12.183-12.333s5.502-12.333 12.183-12.333c6.68 0 12.182 5.57 12.182 12.333s-5.305 12.333-12.182 12.333z"/>
                <ellipse cx="25.702" cy="25.86" fill="#F5BD41" rx="6.966" ry="7.053"/>
            </g>
            <path fill="#5FD0D6" fill-rule="nonzero" d="M17.684 166.01C7.89 166.01 0 173.997 0 183.913c0 9.915 7.89 17.903 17.684 17.903s17.684-7.988 17.684-17.903c0-9.916-7.89-17.903-17.684-17.903z"/>
            <path fill="#E6434D" fill-rule="nonzero" d="M17.684 192.451c-4.625 0-8.434-3.856-8.434-8.538s3.809-8.538 8.434-8.538c4.625 0 8.434 3.856 8.434 8.538s-3.809 8.538-8.434 8.538z"/>
            <ellipse cx="17.684" cy="183.913" fill="#F5BD41" fill-rule="nonzero" rx="4.823" ry="4.883"/>
            <ellipse cx="45.464" cy="205.835" stroke="#5FD0D6" stroke-width="4.384" rx="4.823" ry="4.883"/>
            <ellipse cx="197.739" cy="43.944" stroke="#5FD0D6" stroke-width="4.384" rx="4.823" ry="4.883"/>
            <ellipse cx="152.725" cy="4.883" stroke="#5FD0D6" stroke-width="4.384" rx="4.823" ry="4.883"/>
        </g>
        <path fill="#FFF" d="M225.506 122.633c1.145.02 2.3.213 3.467.577 1.166.365 2.176.911 3.03 1.64l-2.53 2.623a4.584 4.584 0 0 0-1.796-1.233 5.915 5.915 0 0 0-2.17-.422v6.309c.79.25 1.582.541 2.373.874a8.923 8.923 0 0 1 2.14 1.265c.634.51 1.15 1.13 1.545 1.858.396.73.593 1.624.593 2.686 0 1.083-.182 2.035-.546 2.858-.365.822-.854 1.51-1.468 2.061a6.434 6.434 0 0 1-2.124 1.265 7.854 7.854 0 0 1-2.514.468v2.249h-1.686v-2.249a12.327 12.327 0 0 1-3.95-.765 9.789 9.789 0 0 1-3.39-2.14l2.749-2.622c.562.666 1.27 1.212 2.124 1.64.853.426 1.676.65 2.467.67v-6.933c-.916-.25-1.77-.536-2.561-.858a7.726 7.726 0 0 1-2.077-1.234 5.32 5.32 0 0 1-1.39-1.796c-.333-.697-.5-1.546-.5-2.545 0-.937.183-1.775.547-2.514a5.82 5.82 0 0 1 1.468-1.89 7.257 7.257 0 0 1 2.092-1.233 8.422 8.422 0 0 1 2.42-.547v-2.124h1.687v2.062zm-1.686 3.185a3.66 3.66 0 0 0-1.937.812c-.562.458-.843 1.145-.843 2.061 0 .875.266 1.536.797 1.984.53.447 1.192.786 1.983 1.015v-5.872zm1.686 16.428c.875-.042 1.577-.354 2.108-.937.531-.583.797-1.343.797-2.28 0-.916-.276-1.609-.828-2.077-.552-.469-1.244-.848-2.077-1.14v6.434z"/>
    </g>
</svg>
