<svg width="54" height="43" viewBox="0 0 54 43" fill="none" xmlns="http://www.w3.org/2000/svg">
<path d="M45.6667 0.166748H8.33334C6.21161 0.166748 4.17678 1.0096 2.67649 2.50989C1.1762 4.01019 0.333344 6.04502 0.333344 8.16675V34.8334C0.333344 36.9551 1.1762 38.99 2.67649 40.4903C4.17678 41.9906 6.21161 42.8334 8.33334 42.8334H45.6667C47.7884 42.8334 49.8232 41.9906 51.3235 40.4903C52.8238 38.99 53.6667 36.9551 53.6667 34.8334V8.16675C53.6667 6.04502 52.8238 4.01019 51.3235 2.50989C49.8232 1.0096 47.7884 0.166748 45.6667 0.166748ZM43.88 5.50008L27 18.1667L10.12 5.50008H43.88ZM45.6667 37.5001H8.33334C7.6261 37.5001 6.94782 37.2191 6.44773 36.719C5.94763 36.2189 5.66668 35.5407 5.66668 34.8334V8.83342L25.4 23.6334C25.8616 23.9796 26.423 24.1667 27 24.1667C27.577 24.1667 28.1384 23.9796 28.6 23.6334L48.3333 8.83342V34.8334C48.3333 35.5407 48.0524 36.2189 47.5523 36.719C47.0522 37.2191 46.3739 37.5001 45.6667 37.5001Z" fill="#505A66" fill-opacity="0.3"/>
</svg>
