<svg width="44" height="54" viewBox="0 0 44 54" fill="none" xmlns="http://www.w3.org/2000/svg">
<path d="M35.3333 15.8334H32.6667V10.7934C32.6667 7.9644 31.5429 5.25129 29.5425 3.2509C27.5421 1.25052 24.829 0.126709 22 0.126709C19.171 0.126709 16.4579 1.25052 14.4575 3.2509C12.4571 5.25129 11.3333 7.9644 11.3333 10.7934V15.8334H8.66666C6.54492 15.8334 4.51009 16.6762 3.0098 18.1765C1.50951 19.6768 0.666656 21.7116 0.666656 23.8334V45.1667C0.666656 47.2884 1.50951 49.3233 3.0098 50.8236C4.51009 52.3238 6.54492 53.1667 8.66666 53.1667H35.3333C37.4551 53.1667 39.4899 52.3238 40.9902 50.8236C42.4905 49.3233 43.3333 47.2884 43.3333 45.1667V23.8334C43.3333 21.7116 42.4905 19.6768 40.9902 18.1765C39.4899 16.6762 37.4551 15.8334 35.3333 15.8334ZM16.6667 10.7934C16.6308 9.34083 17.1718 7.93324 18.1714 6.8787C19.171 5.82416 20.5476 5.20859 22 5.16671C23.4524 5.20859 24.829 5.82416 25.8286 6.8787C26.8281 7.93324 27.3692 9.34083 27.3333 10.7934V15.8334H16.6667V10.7934ZM38 45.1667C38 45.8739 37.719 46.5522 37.2189 47.0523C36.7188 47.5524 36.0406 47.8334 35.3333 47.8334H8.66666C7.95941 47.8334 7.28114 47.5524 6.78104 47.0523C6.28094 46.5522 5.99999 45.8739 5.99999 45.1667V23.8334C5.99999 23.1261 6.28094 22.4479 6.78104 21.9478C7.28114 21.4477 7.95941 21.1667 8.66666 21.1667H35.3333C36.0406 21.1667 36.7188 21.4477 37.2189 21.9478C37.719 22.4479 38 23.1261 38 23.8334V45.1667Z" fill="#505A66" fill-opacity="0.3"/>
</svg>
