<svg width="29" height="29" viewBox="0 0 29 29" fill="none" xmlns="http://www.w3.org/2000/svg">
<path d="M28.0322 19.8722C27.9559 19.6441 27.8242 19.4397 27.6495 19.2782C27.4747 19.1167 27.2627 19.0034 27.0333 18.9489L18.7092 17.0029C18.4832 16.9504 18.248 16.9567 18.0251 17.0212C17.8021 17.0857 17.5985 17.2064 17.4328 17.3722C17.2386 17.5568 17.2247 17.571 16.3229 19.3324C13.3306 17.9207 10.933 15.4558 9.56645 12.3864C11.3284 11.4773 11.3423 11.4773 11.5226 11.2642C11.6846 11.0946 11.8024 10.8861 11.8654 10.6578C11.9284 10.4295 11.9346 10.1887 11.8833 9.9574L9.98266 1.5341C9.92945 1.29929 9.81875 1.08221 9.66099 0.903295C9.50323 0.724375 9.30359 0.589503 9.08087 0.511375C8.75688 0.392894 8.42231 0.307256 8.08197 0.255693C7.73132 0.172447 7.37349 0.124868 7.0137 0.113647C5.32113 0.113647 3.69787 0.802059 2.50104 2.02744C1.30421 3.25282 0.631836 4.91479 0.631836 6.64774C0.639178 12.447 2.89252 18.0067 6.89772 22.1074C10.9029 26.2081 16.333 28.5152 21.9972 28.5227C22.8353 28.5227 23.6652 28.3537 24.4395 28.0254C25.2137 27.697 25.9173 27.2157 26.5099 26.6089C27.1025 26.0022 27.5726 25.2819 27.8933 24.4891C28.214 23.6964 28.3791 22.8467 28.3791 21.9886C28.3795 21.6271 28.3517 21.2661 28.2958 20.9091C28.2375 20.5563 28.1493 20.2093 28.0322 19.8722ZM21.9972 25.6818C17.0678 25.6781 12.3413 23.6715 8.8557 20.1027C5.37007 16.5339 3.41024 11.6947 3.40656 6.64774C3.41022 5.6694 3.79143 4.73219 4.46711 4.0404C5.14279 3.3486 6.05816 2.9583 7.0137 2.95456H7.47153L8.95601 9.54547L8.20684 9.94319C7.0137 10.5824 6.0703 11.0938 6.56975 12.2017C7.38305 14.5591 8.69903 16.7013 10.4221 18.4729C12.1451 20.2444 14.232 21.6007 16.531 22.4432C17.6964 22.9261 18.1542 22.0313 18.7785 20.7955L19.1809 20.0142L25.6044 21.5199V21.9886C25.6007 22.967 25.2195 23.9042 24.5438 24.596C23.8681 25.2878 22.9528 25.6781 21.9972 25.6818Z" fill="#EDF0F5"/>
</svg>
